{"title":"DJ Khaled Ft. Future, Nicki Minaj &amp; Rick Ross - I Wanna Be W","uid":9370884,"size":56352989,"categoryP":"video","categoryS":"music_videos","magnet":"?xt=urn:btih:7eb9f9619f1e1baafe2153dcfe461cba36e1e2f9&amp;dn=DJ+Khaled+Ft.+Future%2C+Nicki+Minaj+%26amp%3B+Rick+Ross+-+I+Wanna+Be+W&amp;tr=udp%3A%2F%2Ftracker.openbittorrent.com%3A80&amp;tr=udp%3A%2F%2Fopen.demonii.com%3A1337&amp;tr=udp%3A%2F%2Ftracker.coppersurfer.tk%3A6969&amp;tr=udp%3A%2F%2Fexodus.desync.com%3A6969","seeders":1,"leechers":0,"uploader":"Sbyky","files":1,"time":1387523343,"description":"[IMG]http://cdn.piczend.com/images/st3A0SSb/1387503273_iwannabewithyouexplicit.jpg[/IMG]\n\nGeneral\nComplete name                            : DJ Khaled Ft. Future, Nicki Minaj &amp; Rick Ross - I Wanna Be With You [Explicit] 720p [Sbyky].mp4\nFormat                                   : MPEG-4\nFormat profile                           : Base Media\nCodec ID                                 : isom\nFile size                                : 53.7 MiB\nDuration                                 : 4mn 28s\nOverall bit rate mode                    : Variable\nOverall bit rate                         : 1 680 Kbps\nEncoded date                             : UTC 2013-11-12 07:32:46\nTagged date                              : UTC 2013-11-12 07:32:46\n\nVideo\nID                                       : 1\nFormat                                   : AVC\nFormat/Info                              : Advanced Video Codec\nFormat profile                           : &lt;a class=&quot;__cf_email__&quot; href=&quot;/cdn-cgi/l/email-protection&quot; data-cfemail=&quot;1a577b73745a5629342b&quot;&gt;[email&amp;#160;protected]&lt;/a&gt;&lt;script data-cfhash='f9e31' type=&quot;text/javascript&quot;&gt;\n/* &lt;![CDATA[ */!function(){try{var t=&quot;currentScript&quot;in document?document.currentScript:function(){for(var t=document.getElementsByTagName(&quot;script&quot;),e=t.length;e--;)if(t[e].getAttribute(&quot;data-cfhash&quot;))return t[e]}();if(t&amp;&amp;t.previousSibling){var e,r,n,i,c=t.previousSibling,a=c.getAttribute(&quot;data-cfemail&quot;);if(a){for(e=&quot;&quot;,r=parseInt(a.substr(0,2),16),n=2;a.length-n;n+=2)i=parseInt(a.substr(n,2),16)^r,e+=String.fromCharCode(i);e=document.createTextNode(e),c.parentNode.replaceChild(e,c)}t.parentNode.removeChild(t);}}catch(u){}}()/* ]]&gt; */&lt;/script&gt;\nFormat settings, CABAC                   : Yes\nFormat settings, ReFrames                : 3 frames\nCodec ID                                 : avc1\nCodec ID/Info                            : Advanced Video Coding\nDuration                                 : 4mn 28s\nBit rate                                 : 1 552 Kbps\nWidth                                    : 1 280 pixels\nHeight                                   : 720 pixels\nDisplay aspect ratio                     : 16:9\nFrame rate mode                          : Variable\nFrame rate                               : 23.976 fps\nMinimum frame rate                       : 23.974 fps\nMaximum frame rate                       : 2 432.432 fps\nColor space                              : YUV\nChroma subsampling                       : 4:2:0\nBit depth                                : 8 bits\nScan type                                : Progressive\nBits/(Pixel*Frame)                       : 0.070\nStream size                              : 49.6 MiB (92%)\nEncoded date                             : UTC 2013-11-12 07:32:46\nTagged date                              : UTC 2013-11-12 07:32:46\n\nAudio\nID                                       : 2\nFormat                                   : AAC\nFormat/Info                              : Advanced Audio Codec\nFormat profile                           : LC\nCodec ID                                 : 40\nDuration                                 : 4mn 28s\nBit rate mode                            : Variable\nBit rate                                 : 126 Kbps\nChannel(s)                               : 2 channels\nChannel positions                        : Front: L R\nSampling rate                            : 44.1 KHz\nCompression mode                         : Lossy\nDelay relative to video                  : 42ms\nStream size                              : 4.02 MiB (7%)\nEncoded date                             : UTC 2013-11-12 07:28:59\nTagged date                              : UTC 2013-11-12 07:28:59\n\nShared By Sbyky\n[IMG]http://cdn.piczend.com/images/X3Ag13N3/1379453786_saythanks.gif[/IMG]\n[IMG]http://cdn.piczend.com/images/gGqhX2S8/1379453780_keepseeding.gif[/IMG]","torrent":{"xt":"urn:btih:7eb9f9619f1e1baafe2153dcfe461cba36e1e2f9","amp;dn":"DJ+Khaled+Ft.+Future%2C+Nicki+Minaj+%26amp%3B+Rick+Ross+-+I+Wanna+Be+W","amp;tr":["udp%3A%2F%2Ftracker.openbittorrent.com%3A80","udp%3A%2F%2Fopen.demonii.com%3A1337","udp%3A%2F%2Ftracker.coppersurfer.tk%3A6969","udp%3A%2F%2Fexodus.desync.com%3A6969"],"infoHash":"7eb9f9619f1e1baafe2153dcfe461cba36e1e2f9","infoHashBuffer":{"type":"Buffer","data":[126,185,249,97,159,30,27,170,254,33,83,220,254,70,28,186,54,225,226,249]},"announce":[],"urlList":[]}}